<svg width="16" height="15" viewBox="0 0 16 15" fill="none" xmlns="http://www.w3.org/2000/svg">
<path d="M7.6439 14.8881C7.74788 14.9609 7.87216 15 7.99959 15C8.12702 15 8.2513 14.9609 8.35528 14.8881L8 14.3919L8.3561 14.8881L8.36267 14.8833L8.3799 14.8711L8.44554 14.8241C8.50243 14.7835 8.58311 14.7243 8.68759 14.6465C9.90687 13.7371 11.0578 12.7415 12.1313 11.6676C13.0732 10.7206 14.0308 9.6138 14.7561 8.43974C15.4782 7.27217 16 5.98785 16 4.70028C16 3.1719 15.52 1.97757 14.6708 1.16676C13.8256 0.360811 12.6851 0 11.4872 0C10.0718 0 8.82215 0.675406 8 1.71649C7.17785 0.675406 5.92738 0 4.51282 0C1.98564 0 0 2.13973 0 4.70028C0 5.98785 0.522667 7.27136 1.2439 8.43974C1.96923 9.6138 2.92677 10.7206 3.86872 11.6684C5.01318 12.8126 6.24543 13.8676 7.55446 14.8241L7.6201 14.8711L7.63733 14.8833L7.6439 14.8881Z" fill="white"/>
</svg>
