<svg width="150" height="106" viewBox="0 0 150 106" fill="none" xmlns="http://www.w3.org/2000/svg">
<path d="M45.3643 18.1421C57.4455 6.66059 75.7119 6.90101 87.5288 17.035L61.2351 42.1004C50.6547 52.1866 48.3509 68.2035 55.6598 80.8628C57.4708 83.9996 59.7165 86.6903 62.2677 88.9178L53.4092 97.337C38.6479 111.366 14.6519 107.895 4.46986 90.2596C-2.8019 77.6644 -0.49723 61.7271 10.0449 51.7082L45.3643 18.1421Z" fill="white"/>
<path d="M96.2191 8.75109C111.067 -5.40282 135.247 -1.92466 145.503 15.8403C152.812 28.4996 150.509 44.5165 139.928 54.6027L104.944 87.9519C92.7183 99.6065 74.165 99.3056 62.2677 88.9178L88.7284 63.771C99.2705 53.7521 101.575 37.8147 94.3035 25.2196C92.4548 22.0177 90.1502 19.2831 87.5288 17.035L96.2191 8.75109Z" fill="white"/>
</svg>
